<svg width="1600" height="900" viewBox="0 0 1600 900" fill="none" xmlns="http://www.w3.org/2000/svg">
  <defs>
    <linearGradient id="bg" x1="0" y1="0" x2="1" y2="1">
      <stop offset="0%" stop-color="#081835"/>
      <stop offset="100%" stop-color="#1459B5"/>
    </linearGradient>
  </defs>
  <rect width="1600" height="900" fill="url(#bg)"/>
  <rect x="90" y="120" width="1420" height="670" rx="32" fill="#10254D" opacity="0.95"/>
  <g>
    <rect x="160" y="220" width="600" height="420" rx="24" fill="#1B3D74"/>
    <rect x="200" y="260" width="220" height="140" rx="12" fill="#6EA1E5"/>
    <rect x="440" y="260" width="280" height="36" rx="10" fill="#8AB3EC"/>
    <rect x="440" y="310" width="260" height="24" rx="8" fill="#A8C7F1"/>
    <rect x="440" y="346" width="190" height="24" rx="8" fill="#A8C7F1"/>
    <rect x="200" y="430" width="520" height="30" rx="10" fill="#2E5EA2"/>
    <rect x="200" y="472" width="520" height="30" rx="10" fill="#2E5EA2"/>
  </g>
  <g>
    <rect x="840" y="220" width="600" height="420" rx="24" fill="#163766"/>
    <rect x="880" y="262" width="520" height="18" rx="9" fill="#5E90D8"/>
    <rect x="880" y="298" width="520" height="18" rx="9" fill="#7FA9E8"/>
    <rect x="880" y="334" width="520" height="18" rx="9" fill="#9EBEF0"/>
    <rect x="880" y="370" width="520" height="18" rx="9" fill="#7FA9E8"/>
    <rect x="880" y="406" width="520" height="18" rx="9" fill="#5E90D8"/>
    <rect x="880" y="456" width="220" height="140" rx="14" fill="#2E5EA2"/>
    <rect x="1120" y="456" width="280" height="140" rx="14" fill="#224C89"/>
  </g>
  <text x="140" y="95" fill="#E7F1FF" font-size="56" font-family="Arial, sans-serif" font-weight="700">ZNY INTEGRATED CONTROL TOWER</text>
</svg>
