<svg width="1600" height="900" viewBox="0 0 1600 900" fill="none" xmlns="http://www.w3.org/2000/svg">
  <defs>
    <linearGradient id="bg" x1="0" y1="0" x2="0" y2="1">
      <stop offset="0%" stop-color="#0C2148"/>
      <stop offset="100%" stop-color="#112C59"/>
    </linearGradient>
  </defs>
  <rect width="1600" height="900" fill="url(#bg)"/>
  <rect x="120" y="130" width="1360" height="640" rx="34" fill="#1C3157"/>
  <rect x="180" y="190" width="1240" height="520" rx="20" fill="#223C66"/>
  <g opacity="0.95">
    <rect x="220" y="240" width="360" height="28" rx="8" fill="#A9BFE0"/>
    <rect x="220" y="276" width="360" height="28" rx="8" fill="#D1DEF2"/>
    <rect x="220" y="312" width="360" height="28" rx="8" fill="#89A8D3"/>
    <rect x="220" y="380" width="360" height="28" rx="8" fill="#A9BFE0"/>
    <rect x="220" y="416" width="360" height="28" rx="8" fill="#D1DEF2"/>
    <rect x="220" y="452" width="360" height="28" rx="8" fill="#89A8D3"/>
    <rect x="660" y="240" width="360" height="28" rx="8" fill="#A9BFE0"/>
    <rect x="660" y="276" width="360" height="28" rx="8" fill="#D1DEF2"/>
    <rect x="660" y="312" width="360" height="28" rx="8" fill="#89A8D3"/>
    <rect x="660" y="380" width="360" height="28" rx="8" fill="#A9BFE0"/>
    <rect x="660" y="416" width="360" height="28" rx="8" fill="#D1DEF2"/>
    <rect x="660" y="452" width="360" height="28" rx="8" fill="#89A8D3"/>
  </g>
  <g transform="translate(1060 300)">
    <rect x="0" y="200" width="310" height="36" rx="12" fill="#FDBB45"/>
    <rect x="26" y="130" width="190" height="90" rx="10" fill="#FFCF72"/>
    <rect x="54" y="110" width="140" height="24" rx="6" fill="#F4A328"/>
    <circle cx="70" cy="252" r="26" fill="#112038"/>
    <circle cx="238" cy="252" r="26" fill="#112038"/>
  </g>
  <text x="170" y="116" fill="#ECF4FF" font-size="54" font-family="Arial, sans-serif" font-weight="700" opacity="0.94">ZNY WAREHOUSE OPERATIONS</text>
</svg>
