<svg width="1600" height="900" viewBox="0 0 1600 900" fill="none" xmlns="http://www.w3.org/2000/svg">
  <defs>
    <linearGradient id="airSky" x1="280" y1="52" x2="1262" y2="884" gradientUnits="userSpaceOnUse">
      <stop stop-color="#081A3A"/>
      <stop offset="0.45" stop-color="#134A97"/>
      <stop offset="1" stop-color="#8FC6FF"/>
    </linearGradient>
    <radialGradient id="sunGlow" cx="0" cy="0" r="1" gradientUnits="userSpaceOnUse" gradientTransform="translate(1268 212) rotate(126) scale(428 310)">
      <stop stop-color="#EAF4FF" stop-opacity="0.9"/>
      <stop offset="1" stop-color="#EAF4FF" stop-opacity="0"/>
    </radialGradient>
    <linearGradient id="aircraftMetal" x1="515" y1="390" x2="1198" y2="620" gradientUnits="userSpaceOnUse">
      <stop stop-color="#F8FBFF"/>
      <stop offset="0.5" stop-color="#DCE8F8"/>
      <stop offset="1" stop-color="#BFD0E8"/>
    </linearGradient>
  </defs>
  <rect width="1600" height="900" fill="url(#airSky)"/>
  <rect width="1600" height="900" fill="url(#sunGlow)"/>
  <path d="M0 663L176 624C332 590 644 523 860 521C1075 519 1262 582 1374 614L1600 679V900H0V663Z" fill="#162847" fill-opacity="0.46"/>
  <path d="M384 544L940 438C981 430 1018 456 1025 495L1033 541C1040 582 1016 620 976 629L424 738L384 544Z" fill="url(#aircraftMetal)"/>
  <path d="M954 438L1322 282L1373 330L1086 522L954 438Z" fill="#D2E0F3"/>
  <path d="M584 488L317 370L262 411L516 575L584 488Z" fill="#D2E0F3"/>
  <path d="M920 445L965 598L1163 568L1099 480L920 445Z" fill="#AFC4E1" fill-opacity="0.7"/>
  <circle cx="580" cy="609" r="19" fill="#2F4669"/>
  <circle cx="872" cy="558" r="21" fill="#2F4669"/>
  <rect x="356" y="130" width="448" height="74" rx="37" fill="#E7F1FF" fill-opacity="0.16"/>
</svg>
