<svg xmlns="http://www.w3.org/2000/svg" viewBox="0 0 1600 900" role="img" aria-label="Cargo aircraft logistics visual">
  <defs>
    <linearGradient id="sky" x1="0" y1="0" x2="0" y2="1">
      <stop offset="0" stop-color="#0f3c88"/>
      <stop offset="1" stop-color="#83cbff"/>
    </linearGradient>
    <linearGradient id="runway" x1="0" y1="0" x2="1" y2="0">
      <stop offset="0" stop-color="#1f2937"/>
      <stop offset="1" stop-color="#4b5563"/>
    </linearGradient>
  </defs>
  <rect width="1600" height="900" fill="url(#sky)"/>
  <circle cx="1220" cy="180" r="84" fill="#ffffff" opacity=".28"/>
  <rect x="0" y="620" width="1600" height="280" fill="url(#runway)"/>
  <polygon points="0,620 1600,620 1600,560 0,590" fill="#9fb6d1" opacity=".45"/>
  <g fill="#d7e9ff">
    <rect x="430" y="428" width="690" height="88" rx="40"/>
    <polygon points="700,398 880,398 965,495 615,495"/>
    <polygon points="560,424 460,292 710,414"/>
    <polygon points="1000,424 1185,350 1040,470"/>
    <rect x="1070" y="448" width="210" height="44" rx="18"/>
  </g>
  <g fill="#0a2b62" opacity=".6">
    <rect x="478" y="452" width="104" height="16" rx="8"/>
    <rect x="598" y="452" width="104" height="16" rx="8"/>
    <rect x="718" y="452" width="104" height="16" rx="8"/>
    <rect x="838" y="452" width="104" height="16" rx="8"/>
  </g>
  <g fill="#f3f8ff">
    <circle cx="560" cy="648" r="48"/>
    <circle cx="940" cy="648" r="48"/>
  </g>
  <text x="84" y="118" fill="#e8f2ff" font-size="44" font-family="Inter, Arial, sans-serif" font-weight="700" letter-spacing="2">ZNY AIR FREIGHT EXECUTION</text>
</svg>
