<svg width="1600" height="900" viewBox="0 0 1600 900" fill="none" xmlns="http://www.w3.org/2000/svg">
  <defs>
    <linearGradient id="portSky" x1="800" y1="0" x2="800" y2="900" gradientUnits="userSpaceOnUse">
      <stop stop-color="#081A3A"/>
      <stop offset="0.55" stop-color="#1E4C8C"/>
      <stop offset="1" stop-color="#8EB9EC"/>
    </linearGradient>
    <linearGradient id="water" x1="0" y1="0" x2="1" y2="0">
      <stop stop-color="#0D2D57"/>
      <stop offset="1" stop-color="#1C4C83"/>
    </linearGradient>
  </defs>
  <rect width="1600" height="900" fill="url(#portSky)"/>
  <rect x="0" y="628" width="1600" height="272" fill="url(#water)"/>
  <rect x="114" y="366" width="226" height="262" fill="#142744"/>
  <rect x="360" y="406" width="208" height="222" fill="#19345A"/>
  <rect x="586" y="334" width="254" height="294" fill="#11203B"/>
  <rect x="868" y="378" width="214" height="250" fill="#19345A"/>
  <rect x="1106" y="418" width="194" height="210" fill="#142744"/>
  <rect x="286" y="524" width="122" height="44" fill="#F97316"/>
  <rect x="418" y="524" width="122" height="44" fill="#2563EB"/>
  <rect x="552" y="524" width="122" height="44" fill="#14B8A6"/>
  <rect x="684" y="524" width="122" height="44" fill="#EF4444"/>
  <rect x="816" y="524" width="122" height="44" fill="#0EA5E9"/>
  <path d="M1246 290V626" stroke="#CADBF5" stroke-width="11"/>
  <path d="M1246 320L1380 260" stroke="#CADBF5" stroke-width="9"/>
  <path d="M1246 372L1368 322" stroke="#CADBF5" stroke-width="9"/>
  <circle cx="1362" cy="322" r="14" fill="#E4EEFB"/>
</svg>
