<svg width="1600" height="900" viewBox="0 0 1600 900" fill="none" xmlns="http://www.w3.org/2000/svg">
  <defs>
    <linearGradient id="truckSky" x1="800" y1="0" x2="800" y2="900" gradientUnits="userSpaceOnUse">
      <stop stop-color="#10284D"/>
      <stop offset="0.52" stop-color="#2F5EA0"/>
      <stop offset="1" stop-color="#B7D8FF"/>
    </linearGradient>
    <linearGradient id="road" x1="0" y1="0" x2="0" y2="1">
      <stop stop-color="#1D2A43"/>
      <stop offset="1" stop-color="#101A2B"/>
    </linearGradient>
  </defs>
  <rect width="1600" height="900" fill="url(#truckSky)"/>
  <rect x="0" y="620" width="1600" height="280" fill="url(#road)"/>
  <rect x="120" y="710" width="1360" height="10" rx="5" fill="#E8F1FF" fill-opacity="0.65"/>
  <rect x="280" y="438" width="740" height="200" rx="28" fill="#F0F6FF"/>
  <rect x="1028" y="478" width="250" height="160" rx="24" fill="#D6E4F6"/>
  <rect x="318" y="474" width="128" height="88" rx="12" fill="#BFD4F1"/>
  <rect x="468" y="474" width="128" height="88" rx="12" fill="#BFD4F1"/>
  <rect x="618" y="474" width="128" height="88" rx="12" fill="#BFD4F1"/>
  <rect x="768" y="474" width="128" height="88" rx="12" fill="#BFD4F1"/>
  <circle cx="488" cy="660" r="62" fill="#1A2C49"/>
  <circle cx="488" cy="660" r="26" fill="#D8E7FC"/>
  <circle cx="868" cy="660" r="62" fill="#1A2C49"/>
  <circle cx="868" cy="660" r="26" fill="#D8E7FC"/>
  <circle cx="1144" cy="660" r="62" fill="#1A2C49"/>
  <circle cx="1144" cy="660" r="26" fill="#D8E7FC"/>
  <rect x="268" y="356" width="300" height="56" rx="28" fill="#D8EBFF" fill-opacity="0.2"/>
</svg>
