<svg xmlns="http://www.w3.org/2000/svg" viewBox="0 0 1600 900" role="img" aria-label="Freight truck logistics visual">
  <defs>
    <linearGradient id="bg" x1="0" y1="0" x2="1" y2="1">
      <stop offset="0" stop-color="#0a224f"/>
      <stop offset="1" stop-color="#1f78d1"/>
    </linearGradient>
    <linearGradient id="road" x1="0" y1="0" x2="0" y2="1">
      <stop offset="0" stop-color="#3f4a5e"/>
      <stop offset="1" stop-color="#1f2937"/>
    </linearGradient>
  </defs>
  <rect width="1600" height="900" fill="url(#bg)"/>
  <rect y="590" width="1600" height="310" fill="url(#road)"/>
  <polygon points="0,590 1600,590 1600,548 0,562" fill="#8ec4ff" opacity=".35"/>
  <g>
    <rect x="350" y="430" width="640" height="180" rx="24" fill="#eaf3ff"/>
    <rect x="995" y="470" width="240" height="140" rx="20" fill="#d5e7ff"/>
    <rect x="1038" y="497" width="88" height="58" rx="10" fill="#1a417f"/>
    <rect x="1128" y="497" width="62" height="58" rx="10" fill="#4e86c9"/>
    <rect x="390" y="470" width="264" height="86" rx="10" fill="#0d326a" opacity=".8"/>
    <rect x="674" y="470" width="264" height="86" rx="10" fill="#0d326a" opacity=".6"/>
    <circle cx="520" cy="628" r="54" fill="#f8fbff"/>
    <circle cx="520" cy="628" r="26" fill="#5f6b7a"/>
    <circle cx="898" cy="628" r="54" fill="#f8fbff"/>
    <circle cx="898" cy="628" r="26" fill="#5f6b7a"/>
    <circle cx="1110" cy="628" r="54" fill="#f8fbff"/>
    <circle cx="1110" cy="628" r="26" fill="#5f6b7a"/>
  </g>
  <text x="80" y="118" fill="#e8f2ff" font-size="44" font-family="Inter, Arial, sans-serif" font-weight="700" letter-spacing="2">ZNY ROAD FREIGHT NETWORK</text>
</svg>
