<svg xmlns="http://www.w3.org/2000/svg" viewBox="0 0 1800 1000" role="img" aria-label="Premium logistics montage visual">
  <defs>
    <linearGradient id="heroBg" x1="0" y1="0" x2="1" y2="1">
      <stop offset="0" stop-color="#061933"/>
      <stop offset="1" stop-color="#1a4d93"/>
    </linearGradient>
    <linearGradient id="beam" x1="0" y1="0" x2="1" y2="0">
      <stop offset="0" stop-color="#92d5ff" stop-opacity="0"/>
      <stop offset="0.5" stop-color="#92d5ff" stop-opacity="0.5"/>
      <stop offset="1" stop-color="#92d5ff" stop-opacity="0"/>
    </linearGradient>
  </defs>
  <rect width="1800" height="1000" fill="url(#heroBg)"/>
  <circle cx="1380" cy="220" r="180" fill="#8fd3ff" opacity=".18"/>
  <circle cx="360" cy="170" r="110" fill="#5cc0ff" opacity=".17"/>

  <rect x="0" y="640" width="1800" height="360" fill="#10243f"/>
  <rect x="0" y="585" width="1800" height="70" fill="#204d85" opacity=".6"/>

  <g opacity=".95">
    <rect x="210" y="518" width="500" height="68" rx="14" fill="#dcefff"/>
    <polygon points="258,514 678,514 620,470 300,470" fill="#c5e2ff"/>
    <rect x="780" y="550" width="360" height="56" rx="16" fill="#dcefff"/>
    <rect x="1180" y="468" width="420" height="90" rx="16" fill="#e3f2ff"/>
    <polygon points="1230,468 1528,468 1468,422 1286,422" fill="#c6ddff"/>
  </g>

  <g fill="#eaf4ff">
    <rect x="760" y="320" width="520" height="68" rx="28"/>
    <polygon points="956,292 1118,292 1198,380 882,380"/>
    <polygon points="846,318 748,220 928,312"/>
    <polygon points="1168,318 1326,280 1190,368"/>
  </g>

  <g fill="url(#beam)">
    <rect x="120" y="0" width="760" height="1000"/>
    <rect x="840" y="0" width="760" height="1000"/>
  </g>

  <text x="120" y="140" fill="#eaf5ff" font-size="56" font-family="Inter, Arial, sans-serif" font-weight="800" letter-spacing="2">ZNY LOGISTICS • PRECISION. RELIABILITY. INTERNATIONAL REACH.</text>
</svg>
