<svg width="1600" height="900" viewBox="0 0 1600 900" fill="none" xmlns="http://www.w3.org/2000/svg">
  <defs>
    <linearGradient id="whBg" x1="800" y1="0" x2="800" y2="900" gradientUnits="userSpaceOnUse">
      <stop stop-color="#0D2347"/>
      <stop offset="0.54" stop-color="#1E4D8D"/>
      <stop offset="1" stop-color="#9BC0EC"/>
    </linearGradient>
    <linearGradient id="floor" x1="0" y1="0" x2="1" y2="0">
      <stop stop-color="#233450"/>
      <stop offset="1" stop-color="#1A273E"/>
    </linearGradient>
  </defs>
  <rect width="1600" height="900" fill="url(#whBg)"/>
  <rect x="0" y="620" width="1600" height="280" fill="url(#floor)"/>
  <path d="M0 210H1600" stroke="#D6E6FA" stroke-opacity="0.25" stroke-width="4"/>
  <path d="M0 340H1600" stroke="#D6E6FA" stroke-opacity="0.2" stroke-width="4"/>
  <path d="M0 470H1600" stroke="#D6E6FA" stroke-opacity="0.16" stroke-width="4"/>
  <g opacity="0.95">
    <rect x="170" y="248" width="220" height="350" rx="10" fill="#1F3E6D"/>
    <rect x="430" y="208" width="230" height="390" rx="10" fill="#2B548E"/>
    <rect x="700" y="238" width="236" height="360" rx="10" fill="#1F3E6D"/>
    <rect x="980" y="194" width="250" height="404" rx="10" fill="#2B548E"/>
  </g>
  <rect x="230" y="298" width="104" height="58" fill="#F59E0B"/>
  <rect x="500" y="270" width="104" height="58" fill="#38BDF8"/>
  <rect x="770" y="296" width="104" height="58" fill="#FB7185"/>
  <rect x="1060" y="258" width="104" height="58" fill="#34D399"/>
  <rect x="314" y="620" width="970" height="12" rx="6" fill="#D4E5FB" fill-opacity="0.4"/>
</svg>
