<svg xmlns="http://www.w3.org/2000/svg" viewBox="0 0 1600 900" role="img" aria-label="Warehouse operations logistics visual">
  <defs>
    <linearGradient id="warehouseBg" x1="0" y1="0" x2="1" y2="1">
      <stop offset="0" stop-color="#0f2856"/>
      <stop offset="1" stop-color="#225da1"/>
    </linearGradient>
  </defs>
  <rect width="1600" height="900" fill="url(#warehouseBg)"/>
  <rect x="120" y="170" width="1360" height="610" rx="22" fill="#132744"/>
  <g fill="#dce9ff">
    <rect x="190" y="230" width="180" height="490" rx="12"/>
    <rect x="430" y="230" width="180" height="490" rx="12"/>
    <rect x="670" y="230" width="180" height="490" rx="12"/>
    <rect x="910" y="230" width="180" height="490" rx="12"/>
    <rect x="1150" y="230" width="180" height="490" rx="12"/>
  </g>
  <g fill="#719fd8">
    <rect x="222" y="268" width="116" height="62"/>
    <rect x="222" y="354" width="116" height="62"/>
    <rect x="222" y="440" width="116" height="62"/>
    <rect x="222" y="526" width="116" height="62"/>

    <rect x="462" y="298" width="116" height="62"/>
    <rect x="462" y="384" width="116" height="62"/>
    <rect x="462" y="470" width="116" height="62"/>

    <rect x="702" y="268" width="116" height="62"/>
    <rect x="702" y="354" width="116" height="62"/>
    <rect x="702" y="440" width="116" height="62"/>
    <rect x="702" y="526" width="116" height="62"/>

    <rect x="942" y="298" width="116" height="62"/>
    <rect x="942" y="384" width="116" height="62"/>
    <rect x="942" y="470" width="116" height="62"/>

    <rect x="1182" y="268" width="116" height="62"/>
    <rect x="1182" y="354" width="116" height="62"/>
    <rect x="1182" y="440" width="116" height="62"/>
    <rect x="1182" y="526" width="116" height="62"/>
  </g>
  <g fill="#f6faff">
    <circle cx="366" cy="764" r="28"/>
    <rect x="390" y="754" width="186" height="20" rx="10"/>
    <circle cx="850" cy="764" r="28"/>
    <rect x="874" y="754" width="240" height="20" rx="10"/>
  </g>
  <text x="84" y="118" fill="#e8f2ff" font-size="44" font-family="Inter, Arial, sans-serif" font-weight="700" letter-spacing="2">ZNY WAREHOUSE OPERATIONS</text>
</svg>
